<!DOCTYPE svg PUBLIC "-//W3C//DTD SVG 1.1//EN" "http://www.w3.org/Graphics/SVG/1.1/DTD/svg11.dtd">
<!-- Uploaded to: SVG Repo, www.svgrepo.com, Transformed by: SVG Repo Mixer Tools -->
<svg fill="#ffffff" width="800px" height="800px" viewBox="0 0 24 24" xmlns="http://www.w3.org/2000/svg" stroke="#ffffff">
<g id="SVGRepo_bgCarrier" stroke-width="0"/>
<g id="SVGRepo_tracerCarrier" stroke-linecap="round" stroke-linejoin="round"/>
<g id="SVGRepo_iconCarrier"> <title/> <g data-name="Layer 2" id="Layer_2"> <path d="M3,12V22h8V13h1.45c0,.49,0,1,0,1.46L13.07,22h7.85l.58-7.54A17.17,17.17,0,0,0,17.78,2.38L17,1.4l-.78,1a17.21,17.21,0,0,0-3,5.62H9.82A3,3,0,0,0,10,7,3,3,0,0,0,4,7a3,3,0,0,0,.62,1.8A4,4,0,0,0,3,12ZM17,4.69a15.17,15.17,0,0,1,2.51,9.62L19.07,20H18V10H16V20H14.93l-.44-5.69A15.17,15.17,0,0,1,17,4.69ZM12.58,11H9v9H8V16H6v4H5V12a2,2,0,0,1,2-2h5.74C12.68,10.33,12.62,10.66,12.58,11ZM6,7A1,1,0,1,1,7,8,1,1,0,0,1,6,7Z"/> </g> </g>
</svg>