<?xml version="1.0" encoding="iso-8859-1"?>
<!-- Uploaded to: SVG Repo, www.svgrepo.com, Generator: SVG Repo Mixer Tools -->
<svg height="800px" width="800px" version="1.1" id="Layer_1" xmlns="http://www.w3.org/2000/svg" xmlns:xlink="http://www.w3.org/1999/xlink" 
	 viewBox="0 0 512 512" xml:space="preserve">
<circle style="fill:#324A5E;" cx="256" cy="256" r="256"/>
<path style="fill:#2B3B4E;" d="M281.041,510.779c109.889-10.669,199.43-90.808,224.156-195.951L395.947,205.576l-26.169-9.011
	l-22.411,13.464l-7.818,24.483l-28.936-28.936l-28.962-9.011L256,222.217v87.245L86.552,316.29L281.041,510.779z"/>
<path style="fill:#31BAFD;" d="M426.667,312.889c0,15.71-76.41,28.444-170.667,28.444S85.333,328.599,85.333,312.889V256h341.333
	V312.889z"/>
<path style="fill:#2B9ED8;" d="M257.15,256v85.332c93.727-0.103,169.517-12.797,169.517-28.443V256H257.15z"/>
<ellipse style="fill:#B5F1F4;" cx="256" cy="256" rx="170.667" ry="28.444"/>
<path style="fill:#84DBFF;" d="M426.667,256c0-15.644-75.79-28.339-169.517-28.443v56.884
	C350.877,284.339,426.667,271.644,426.667,256z"/>
<path style="fill:#FFFFFF;" d="M369.778,193.508c-19.011,0-34.478,15.467-34.478,34.478v2.822v16.572h-73.266v-19.394
	c0-0.14,0.019-0.272,0.021-0.412c0.222-12.167,10.171-21.999,22.39-21.999c12.357,0,22.411,10.054,22.411,22.411v0.853
	c4.091,0.212,8.114,0.45,12.067,0.712v-1.565c0-19.011-15.467-34.478-34.478-34.478c-18.872,0-34.233,15.246-34.457,34.066
	c-0.002,0.138-0.021,0.272-0.021,0.412v56.439c2.003,0.012,4.013,0.019,6.034,0.019s4.03-0.009,6.034-0.019v-23.254H335.3v20.02
	c4.124-0.362,8.151-0.75,12.067-1.164v-48.056v-3.986c0-12.357,10.054-22.411,22.411-22.411s22.411,10.054,22.411,22.411v10.871
	c4.396,0.969,8.432,1.984,12.067,3.044v-13.915C404.256,208.975,388.789,193.508,369.778,193.508z"/>
</svg>